<svg xmlns="http://www.w3.org/2000/svg" viewBox="0 0 226 226"><g id="Layer_2" data-name="Layer 2"><g id="Layer_1-2" data-name="Layer 1"><g id="Layer_1-2-2" data-name="Layer 1-2"><circle fill="#ff0" cx="113" cy="113" r="113"/></g><path d="M24.54,91l1.85-5.67c1.45-4.47,5.48-6.5,10.21-5s7.15,5.58,5.65,10.19l-1.83,5.6Zm14.78,2.49,1.09-3.34c1.21-3.73-.89-6.38-4.48-7.55-3.13-1-6.56-.35-7.83,3.54L27,89.45Z"/><path d="M30.38,72.87,31.32,71l2.35,1.17L32.73,74Zm4.88,2.44.94-1.88,10.88,5.44-.94,1.88Z"/><path d="M48.33,73.5,53.56,77,52.4,78.73,40.76,71c-.83-.55-1.68-1.13-2.48-1.63l1.13-1.7a17.91,17.91,0,0,1,1.63,1,4.2,4.2,0,0,1,.38-4.53c1.56-2.35,4.66-2.74,7.74-.68,3.62,2.41,4.26,5.66,2.63,8.11A3.72,3.72,0,0,1,48.33,73.5ZM48,65.27c-2.15-1.43-4.27-1.43-5.42.3-1.4,2.1-.63,3.81,1.83,5.45s4.3,1.89,5.71-.23C51.39,68.94,50.52,66.94,48,65.27Z"/><path d="M56.09,65.35,42.75,53.85l1.37-1.59,13.35,11.5Z"/><path d="M63.08,49.82c2.36,2.59,2.83,6.08.08,8.58-2.58,2.35-5.95,1.78-8.42-.92s-2.78-6.11-.07-8.59C57.17,46.62,60.51,47,63.08,49.82ZM56.33,56c1.8,2,4.09,2.51,5.71,1s1.32-3.71-.54-5.75-4-2.58-5.72-1S54.46,54,56.33,56Z"/><path d="M64.06,45.14c-.52-.91-1.08-1.86-1.59-2.71l1.75-1c.21.3.71,1,1,1.58a3.78,3.78,0,0,1,2-3.65,3.34,3.34,0,0,1,4,.2,4.12,4.12,0,0,1,2.26-3.83c1.71-1,3.91-.92,5.56,1.93l4,6.92-1.79,1-3.88-6.7c-.71-1.22-1.9-2.26-3.54-1.3s-1.71,2.72-.63,4.58l3.51,6.05-1.78,1-3.85-6.65c-.79-1.35-1.87-2.34-3.52-1.38s-1.72,2.82-.55,4.83l3.38,5.83-1.81,1Z"/><path d="M86.52,25.05l2-.59L89.26,27l-2,.58ZM88,30.28l2-.58,3.37,11.69-2,.58Z"/><path d="M106.51,39.06,99.32,22.81l2.37-.16,3.49,8.11c1,2.38,2,4.79,2.52,6.29h0c.26-1.39,1-4,1.74-6.49L112,22l2.28-.16-5.15,17.08Z"/><path d="M117.42,26.72l2.1.13L118.76,39l-2.1-.13Zm.34-5.44,2.1.13L119.7,24l-2.1-.13Z"/><path d="M123.39,36A2.76,2.76,0,0,0,126,38.53c1.76.3,2.58-.34,2.77-1.43s-.27-1.73-2.47-2.68c-3.28-1.42-3.82-2.59-3.54-4.22s1.83-3.16,4.91-2.63,4,2.54,3.92,4.24l-2-.35a2.39,2.39,0,0,0-2.28-2.3c-1.68-.29-2.32.44-2.46,1.22s.27,1.43,2.37,2.33c3.49,1.49,4,2.82,3.71,4.61-.36,2.1-2.29,3.35-5.28,2.83s-4.36-2.36-4.3-4.56Z"/><path d="M142.53,40.89c-.38,1.12-.89,2.68-1.11,3.36l-1.94-.65c.06-.32.28-1,.51-1.76a3.6,3.6,0,0,1-4.17.82c-1.94-.65-3.48-2.25-2.38-5.5L136,29.57l2,.67-2.42,7.16c-.51,1.51-.51,3.07,1.4,3.72,2.12.71,3.34-.18,4.31-3.06l2-6,2,.68Z"/><path d="M147.91,41c-1.15,2.18-.89,4.32.93,5.3a2.81,2.81,0,0,0,3.48-.27l1.87,1a5,5,0,0,1-6.24.79c-3.37-1.81-3.27-5.29-1.79-8.05,1.71-3.19,4.68-4.87,7.94-3.12,3.46,1.86,3.11,5.24,1.88,7.53a10,10,0,0,1-.51.87Zm6.41,1.75c.93-1.77.8-3.67-1-4.65s-3.42-.14-4.61,1.62Z"/><path d="M154.62,51.54l10.1-14.44,1.72,1.21-10.1,14.44Z"/><path d="M165.64,44.42l1.62,1.35,2.3-2.75,1.61,1.34-2.3,2.76,2.06,1.72-1.1,1.32-2.06-1.73-4.58,5.47c-.75.9-.92,1.55-.08,2.26a4.12,4.12,0,0,0,.88.6L163,58a5.76,5.76,0,0,1-1.53-1c-1.46-1.21-1.47-2.5-.17-4l4.89-5.85-1.62-1.35Z"/><path d="M168,63l.11-.08c1.79-1.41,4.57-1.7,8.52-.68,3.09.79,4,1,5.37-.13a2.52,2.52,0,0,0,.48-3.87c-1.18-1.5-2.53-1.59-4.24-.65L177,55.92a4.88,4.88,0,0,1,6.92,1.17c2.19,2.78,1.26,5.27-.48,6.65s-3.24,1.26-6.82.37c-2.67-.67-4.38-.79-5.57-.36l5.14,6.51-1.64.91Z"/><path d="M187.82,78.45c-3.43,1.88-7.81,3-9.92-.87s.95-6.8,4.54-8.76,7.8-2.78,9.85,1S191.37,76.51,187.82,78.45Zm-4.31-7.67c-2.64,1.44-5.37,3.52-4,6s4.4,1.34,7.27-.23c2.67-1.46,5.27-3.48,4-5.84S186.55,69.11,183.51,70.78Z"/><path d="M181.46,83.83l.12,0c2.16-.75,4.88-.1,8.28,2.18,2.65,1.76,3.45,2.21,5.1,1.64a2.52,2.52,0,0,0,1.74-3.5c-.62-1.81-1.86-2.33-3.79-2l-.68-2a4.88,4.88,0,0,1,6.14,3.4c1.15,3.35-.55,5.39-2.64,6.11-2.26.78-3.48.13-6.56-1.9-2.3-1.51-3.88-2.19-5.14-2.17l2.7,7.83-1.86.33Z"/><path d="M185.82,98.62l13-2.53a10.13,10.13,0,0,1-2-3l1.67-.33a9.82,9.82,0,0,0,2.95,3.33l.31,1.56-15.58,3Z"/></g></g></svg>