<?xml version="1.0" encoding="UTF-8"?>
<svg width="174px" height="89px" viewBox="0 0 174 89" version="1.1" xmlns="http://www.w3.org/2000/svg" xmlns:xlink="http://www.w3.org/1999/xlink">
    <!-- Generator: Sketch 61 (89581) - https://sketch.com -->
    <title>Group</title>
    <desc>Created with Sketch.</desc>
    <defs>
        <linearGradient x1="50%" y1="0%" x2="50%" y2="100%" id="linearGradient-1">
            <stop stop-color="#666666" offset="0%"></stop>
            <stop stop-color="#C6C6C6" offset="46.157672%"></stop>
            <stop stop-color="#EEEEEE" offset="53.0702973%"></stop>
            <stop stop-color="#E4E4E4" offset="58.6559444%"></stop>
            <stop stop-color="#7D7D7D" offset="66.1838031%"></stop>
            <stop stop-color="#666666" offset="70.845644%"></stop>
            <stop stop-color="#8F8F8F" offset="76.7217688%"></stop>
            <stop stop-color="#939393" offset="85.7962532%"></stop>
            <stop stop-color="#D8D8D8" offset="100%"></stop>
        </linearGradient>
    </defs>
    <g id="Page-1" stroke="none" stroke-width="1" fill="none" fill-rule="evenodd">
        <g id="Group" transform="translate(-7.000000, 0.000000)">
            <path d="M43.5796295,0 L144.420371,0 C146.458338,1.40198836e-15 148.170479,1.53220757 148.395839,3.55767602 L154.815311,61.2538695 C154.933493,62.3160489 155.471821,63.2867631 156.310236,63.9495233 L178.970199,81.8620223 C180.703256,83.2319887 180.997599,85.7474863 179.627633,87.4805435 C178.869016,88.4402214 177.712963,89 176.489655,89 L11.5103447,89 C9.30120575,89 7.51034475,87.209139 7.51034475,85 C7.51034475,83.7766925 8.07012333,82.6206392 9.02980125,81.8620223 L31.6897637,63.9495233 C32.5281794,63.2867631 33.066507,62.3160489 33.1846887,61.2538695 L39.604161,3.55767602 C39.8295214,1.53220757 41.5416624,1.2625469e-15 43.5796295,0 Z" id="Rectangle" fill="#666666"></path>
            <path d="M43.5705426,0 L144.429457,0 C146.463566,-3.73659679e-16 148.173757,1.52657725 148.403796,3.54763626 L154.808857,59.8206736 C154.931055,60.8942709 155.482399,61.8727629 156.337406,62.5334499 L178.727466,79.83486 C180.475524,81.1856325 180.797588,83.6977314 179.446816,85.44579 C178.689358,86.4260291 177.52047,87 176.281676,87 L11.7183241,87 C9.50918513,87 7.71832413,85.209139 7.71832413,83 C7.71832413,81.7612061 8.29229507,80.5923174 9.27253412,79.83486 L31.6625943,62.5334499 C32.5176009,61.8727629 33.0689448,60.8942709 33.1911428,59.8206736 L39.596204,3.54763626 C39.8262432,1.52657725 41.536434,-2.29087558e-15 43.5705426,0 Z" id="Rectangle" fill="url(#linearGradient-1)"></path>
        </g>
    </g>
</svg>