<svg width="112" height="112" viewBox="0 0 112 112" fill="none" xmlns="http://www.w3.org/2000/svg">
<ellipse cx="56" cy="56" rx="28.432" ry="28.432" fill="black"/>
<path d="M55.0959 0.575994C55.454 -0.191999 56.546 -0.191998 56.9041 0.575995L64.4098 16.6714C64.7182 17.3328 64.2354 18.0906 63.5056 18.0906H48.4944C47.7646 18.0906 47.2818 17.3328 47.5902 16.6714L55.0959 0.575994Z" fill="black"/>
<path d="M56.9041 111.424C56.546 112.192 55.454 112.192 55.0959 111.424L47.5902 95.3286C47.2818 94.6673 47.7646 93.9094 48.4944 93.9094H63.5056C64.2354 93.9094 64.7182 94.6673 64.4098 95.3286L56.9041 111.424Z" fill="black"/>
<path d="M94.509 16.1508C95.3023 15.8665 96.069 16.6331 95.7847 17.4264L89.8217 34.0666C89.5748 34.7556 88.6947 34.953 88.1772 34.4354L77.5 23.7583C76.9824 23.2407 77.1799 22.3606 77.8689 22.1137L94.509 16.1508Z" fill="black"/>
<path d="M17.3618 95.8493C16.5685 96.1336 15.8018 95.3669 16.0861 94.5736L22.0491 77.9335C22.296 77.2445 23.1761 77.047 23.6936 77.5646L34.3708 88.2418C34.8884 88.7593 34.6909 89.6394 34.0019 89.8863L17.3618 95.8493Z" fill="black"/>
<path d="M95.7846 94.5736C96.0689 95.3669 95.3023 96.1335 94.5089 95.8493L77.8688 89.8863C77.1798 89.6394 76.9824 88.7593 77.4999 88.2417L88.1771 77.5646C88.6946 77.047 89.5748 77.2444 89.8217 77.9334L95.7846 94.5736Z" fill="black"/>
<path d="M16.0861 17.4264C15.8018 16.6331 16.5685 15.8665 17.3618 16.1507L34.0019 22.1137C34.6909 22.3606 34.8884 23.2407 34.3708 23.7583L23.6936 34.4354C23.1761 34.953 22.296 34.7555 22.0491 34.0665L16.0861 17.4264Z" fill="black"/>
<path d="M111.424 55.0959C112.192 55.454 112.192 56.546 111.424 56.9041L95.3286 64.4098C94.6672 64.7182 93.9094 64.2354 93.9094 63.5056V48.4944C93.9094 47.7646 94.6672 47.2818 95.3286 47.5902L111.424 55.0959Z" fill="black"/>
<path d="M0.575994 56.9041C-0.191999 56.546 -0.191998 55.454 0.575995 55.0959L16.6714 47.5902C17.3328 47.2818 18.0906 47.7646 18.0906 48.4944L18.0906 63.5056C18.0906 64.2354 17.3328 64.7182 16.6714 64.4098L0.575994 56.9041Z" fill="black"/>
</svg>
