<?xml version="1.0" encoding="UTF-8"?><svg id="Layer_2" xmlns="http://www.w3.org/2000/svg" viewBox="0 0 800 800"><defs><style>.cls-1{fill:none;}.cls-2{fill:#fff;}.cls-3{fill:#efe7b4;}.cls-4{fill:#9e9888;}.cls-5{fill:#c1b995;}.cls-6{fill:#404091;}.cls-7{fill:#46388e;}.cls-8{fill:#898376;}.cls-9{fill:#534f8e;}</style></defs><g id="island"><rect id="frame" class="cls-1" width="800" height="800"/><g id="trees-mushroom"><g id="mushroom-large"><path class="cls-7" d="M233.44,359.9s-.39-14.76,22.7-27.92c23.09-13.17,20-10.2,33.78-21.11,13.78-10.91,30.5-14.54,43.07-8.94,12.58,5.6,29.78,17.68,32.33,47.78,2.55,30.11,16.06,40.35,3.72,58.48l-135.61-48.29Z"/><ellipse class="cls-4" cx="302.12" cy="382.23" rx="32.88" ry="72.21" transform="translate(-154.78 551.38) rotate(-71.99)"/><g><path class="cls-8" d="M315.16,372.96s28.8,17.87,48.16,8.56"/><path class="cls-8" d="M311,371.29s19.75,1.62,29.25-8.03"/><path class="cls-8" d="M305.61,369.43s10.93-9.62,13.17-16.2"/><path class="cls-8" d="M300.24,368.94s-18.62-6.22-22.75-24.9"/><path class="cls-8" d="M298.34,374.6s-44.12-3.8-56.2-24.73"/><path class="cls-8" d="M313.76,378.02s19.99,19.31,57.04,26.53"/><path class="cls-8" d="M303.06,378.43s-38.73,11.59-65.67-.18"/><path class="cls-8" d="M309.93,379.4s4.01,18.55,35.79,40.42"/><path class="cls-8" d="M264.01,401.2s32.14-2.67,44.73-27.12"/><path class="cls-8" d="M309.9,418.17s-10.08-31.13-4.44-44.87"/></g><path class="cls-3" d="M302.02,368.05s-37.23,93.93-24.31,143.28h28.95s-18.13-77.22,7.13-142.43c0-1.76-11.78-.85-11.78-.85Z"/><g id="dots"><circle class="cls-2" cx="317.76" cy="310.84" r="4.56"/><circle class="cls-2" cx="342.27" cy="322.52" r="4.56"/><circle class="cls-2" cx="327.88" cy="336.43" r="3.22"/><circle class="cls-2" cx="350.45" cy="351.76" r="4.56"/><circle class="cls-2" cx="272.66" cy="331.88" r="3.66"/><circle class="cls-2" cx="300.12" cy="327.04" r="3.66"/></g><path class="cls-5" d="M313.79,368.9c0-.85-2.73-1.08-5.56-1.08-6.94,17.85-24.11,70.68-17.93,143.52h16.35s-18.13-77.22,7.13-142.43Z"/></g><g id="mushroom-left"><path class="cls-9" d="M94.73,437.86s-7.39-8.62,0-27.67c7.39-19.06,6.99-15.79,9.92-28.98,2.93-13.19,11.14-23.47,21.36-26.23s26.34-3.9,42.47,12.83c16.12,16.73,29.16,16.28,30.59,33.09l-104.33,36.97Z"/><ellipse class="cls-4" cx="146.53" cy="417.87" rx="55.53" ry="25.28" transform="translate(-140.62 80.78) rotate(-21.1)"/><g><path class="cls-8" d="M149.82,406.02s25.85-3.31,32.89-18.26"/><path class="cls-8" d="M146.53,407.04s12.57-8.62,13.56-18.98"/><path class="cls-8" d="M142.41,408.55s1.86-11.04,0-16.06"/><path class="cls-8" d="M138.97,410.85s-14.13,5.32-25.65-3.82"/><path class="cls-8" d="M140.58,415.15s-28.16,19.13-45.53,12.5"/><path class="cls-8" d="M151.44,409.72s21.29,1.83,46.9-11.84"/><path class="cls-8" d="M145.25,415.15s-17.49,25.7-39.27,31.75"/><path class="cls-8" d="M149.82,412.4s11.39,9.12,40.96,6.76"/><path class="cls-8" d="M133,447.68s17.88-17.18,13.53-37.88"/><path class="cls-8" d="M168.61,435.55s-21.11-13.69-24.41-24.62"/></g><path class="cls-3" d="M149.82,406.02s28.33,60.65,15.41,110h-21.74s20.74-39.95-4.52-105.16c0-1.76,10.85-4.84,10.85-4.84Z"/><g id="dots-2"><circle class="cls-2" cx="120.2" cy="368.66" r="3.42"/><circle class="cls-2" cx="151.75" cy="373.64" r="4.56"/><circle class="cls-2" cx="137.77" cy="359.6" r="1.61"/><circle class="cls-2" cx="110.91" cy="394.06" r="3.66"/></g><path class="cls-5" d="M149.82,406.02s-2.88,.82-5.67,1.85c5.9,14.29,24.09,64.13,11.05,108.15h10.03c12.92-49.35-15.41-110-15.41-110Z"/></g><g id="mushroom-right"><path class="cls-6" d="M630.91,409.7s-2.22-11.05,13.43-23.96c15.65-12.91,13.71-10.28,22.66-20.28,8.94-10,21.04-14.91,31.23-12.34,10.19,2.57,24.7,9.41,30.54,31.73,5.84,22.31,17.34,28.26,10.42,43.5l-108.29-18.65Z"/><ellipse class="cls-4" cx="685.47" cy="417.34" rx="22.94" ry="55.36" transform="translate(163.61 1027.01) rotate(-80.77)"/><g><path class="cls-8" d="M694.51,409.79s23.72,9.77,37.57,1.62"/><path class="cls-8" d="M691.17,409s15.22-.64,21.51-8.14"/><path class="cls-8" d="M686.87,408.2s7.39-7.61,8.45-12.35"/><path class="cls-8" d="M682.73,408.34s-14.81-2.63-19.8-15.15"/><path class="cls-8" d="M681.84,412.41s-34.02,1.31-45.29-12.06"/><path class="cls-8" d="M693.93,413.4s17.14,11.55,46.11,13.23"/><path class="cls-8" d="M685.81,414.64s-28.4,11.44-50.1,5.72"/><path class="cls-8" d="M691.15,414.69s4.88,12.44,31.27,24.71"/><path class="cls-8" d="M658.28,433.83s24.25-4.71,31.44-22.7"/><path class="cls-8" d="M694.94,441.45s-10.75-20.59-7.8-30.57"/></g><path class="cls-3" d="M682.73,408.34s-28.38,58.45-15.46,107.8h21.74s-20.34-40.05,4.92-105.26c0-1.76-11.2-2.54-11.2-2.54Z"/><g id="dots-3"><circle class="cls-2" cx="658.28" cy="384.21" r="3.52"/><circle class="cls-2" cx="688.31" cy="363.59" r="1.61"/><circle class="cls-2" cx="670.74" cy="372.65" r="3.42"/><circle class="cls-2" cx="702.3" cy="377.63" r="4.56"/></g><path class="cls-5" d="M693.93,410.88c0-.85-2.6-1.47-5.3-1.89-7.46,16.49-23.62,60.1-11.54,107.14h11.92s-20.34-40.05,4.92-105.26Z"/></g></g></g></svg>