<svg xmlns="http://www.w3.org/2000/svg" viewBox="0 0 329.91 329.55"><defs><style>.cls-1,.cls-2,.cls-3,.cls-4,.cls-5,.cls-6,.cls-7,.cls-8,.cls-9{fill:none;stroke-linecap:round;stroke-linejoin:round;stroke-width:9.2px;}.cls-1,.cls-6{stroke:#6736db;}.cls-1,.cls-2,.cls-3,.cls-4,.cls-5{opacity:0.2;}.cls-2{stroke:#a6b0b5;}.cls-3,.cls-7{stroke:#02b26d;}.cls-4,.cls-8{stroke:#007dff;}.cls-5,.cls-9{stroke:#e65f00;}</style></defs><g id="Layer_2" data-name="Layer 2"><g id="Layer_1-2" data-name="Layer 1"><path class="cls-1" d="M175.8,84.41a80.29,80.29,0,1,1-21,0"/><path class="cls-2" d="M175.74,104.75a60.21,60.21,0,1,1-20.92,0"/><path class="cls-3" d="M154,64.63a100.59,100.59,0,1,0,21.79,0"/><path class="cls-4" d="M153.88,44.43a120.69,120.69,0,1,0,22.29,0"/><path class="cls-5" d="M154.05,24.77a140.28,140.28,0,1,0,22.35.05"/><path class="cls-2" d="M154.16,4.6a160.32,160.32,0,1,0,22.24,0"/><path class="cls-6" d="M175.8,84.41a80.31,80.31,0,1,1-59.89,16.13"/><path class="cls-6" d="M175.74,104.75a60.21,60.21,0,1,1-20.92,0"/><path class="cls-7" d="M71.4,127.9A100.6,100.6,0,1,0,175.82,64.6"/><path class="cls-8" d="M179.9,284.41a120.71,120.71,0,0,0-3.73-240"/><path class="cls-9" d="M283.69,89.93A140.2,140.2,0,0,0,176.4,24.82"/></g></g></svg>