<?xml version="1.0" encoding="utf-8"?>
<!-- Generator: Adobe Illustrator 26.0.3, SVG Export Plug-In . SVG Version: 6.00 Build 0)  -->
<svg version="1.1" id="Layer_1" xmlns="http://www.w3.org/2000/svg" xmlns:xlink="http://www.w3.org/1999/xlink" x="0px" y="0px"
	 viewBox="0 0 329.9 329.5" style="enable-background:new 0 0 329.9 329.5;" xml:space="preserve">
<style type="text/css">
	
		.st0{opacity:0.2;fill:none;stroke:#6736DB;stroke-width:9.2;stroke-linecap:round;stroke-linejoin:round;enable-background:new    ;}
	
		.st1{opacity:0.2;fill:none;stroke:#A6B0B5;stroke-width:9.2;stroke-linecap:round;stroke-linejoin:round;enable-background:new    ;}
	
		.st2{opacity:0.2;fill:none;stroke:#02B26D;stroke-width:9.2;stroke-linecap:round;stroke-linejoin:round;enable-background:new    ;}
	
		.st3{opacity:0.2;fill:none;stroke:#007DFF;stroke-width:9.2;stroke-linecap:round;stroke-linejoin:round;enable-background:new    ;}
	
		.st4{opacity:0.2;fill:none;stroke:#E65F00;stroke-width:9.2;stroke-linecap:round;stroke-linejoin:round;enable-background:new    ;}
	.st5{fill:none;stroke:#6736DB;stroke-width:9.2;stroke-linecap:round;stroke-linejoin:round;}
	.st6{fill:none;stroke:#02B26D;stroke-width:9.2;stroke-linecap:round;stroke-linejoin:round;}
	.st7{fill:none;stroke:#007DFF;stroke-width:9.2;stroke-linecap:round;stroke-linejoin:round;}
	.st8{fill:none;stroke:#E65F00;stroke-width:9.2;stroke-linecap:round;stroke-linejoin:round;}
</style>
<g id="Layer_2_00000030453066445658883550000011669428421071196070_">
	<g id="Layer_1-2">
		<path class="st0" d="M175.8,84.4c44,5.8,74.9,46.1,69.1,90.1c-5.8,44-46.1,74.9-90.1,69.1c-44-5.8-74.9-46.1-69.1-90.1
			c4.8-36,33.1-64.4,69.1-69.1"/>
		<path class="st1" d="M175.7,104.8c32.7,5.8,54.6,37,48.8,69.8s-37,54.6-69.8,48.8s-54.6-37-48.8-69.8
			c4.4-24.9,23.9-44.4,48.8-48.8"/>
		<path class="st2" d="M154,64.6c-55.2,6-95.1,55.7-89.1,110.9s55.7,95.1,110.9,89.1s95.1-55.7,89.1-110.9
			c-5.1-46.9-42.2-84-89.1-89.1"/>
		<path class="st3" d="M153.9,44.4c-66.4,6.2-115.2,64.9-109,131.3s64.9,115.2,131.3,109s115.2-64.9,109-131.3
			c-5.4-57.8-51.2-103.7-109-109"/>
		<path class="st4" d="M154.1,24.8c-77.2,6-135,73.5-129,150.7s73.5,135,150.7,129c77.2-6,135-73.5,129-150.7
			C299.4,85.1,245,30.5,176.4,24.8"/>
		<path class="st1" d="M154.2,4.6C65.8,10.7-0.8,87.3,5.3,175.7s82.7,155,171.1,148.8c88.3-6.1,155-82.7,148.8-171.1
			c-5.5-79.8-69-143.3-148.8-148.8"/>
		<path class="st5" d="M175.8,84.4c44,5.9,74.8,46.3,68.9,90.3s-46.3,74.8-90.3,68.9s-74.8-46.3-68.9-90.3
			c2.8-20.9,13.7-39.9,30.4-52.8"/>
		<path class="st5" d="M175.7,104.8c32.7,5.8,54.6,37,48.8,69.8s-37,54.6-69.8,48.8s-54.6-37-48.8-69.8
			c4.4-24.9,23.9-44.4,48.8-48.8"/>
		<path class="st6" d="M175.8,64.6c8.9,1,17.6,3.1,26,6.4c51.7,20.3,77.2,78.7,56.9,130.4s-78.7,77.2-130.4,56.9
			C76.6,238,51.1,179.6,71.4,127.9"/>
		<path class="st7" d="M176.2,44.4c56.5,5.2,101.8,49.1,108.7,105.4c8.2,66.2-38.8,126.4-105,134.6"/>
		<path class="st8" d="M176.4,24.8c44,3.6,83.8,27.7,107.3,65.1"/>
	</g>
</g>
</svg>
